<?xml version="1.0" encoding="utf-8"?>
<!-- Generator: Adobe Illustrator 21.1.0, SVG Export Plug-In . SVG Version: 6.00 Build 0)  -->
<svg version="1.1" id="圖層_1" xmlns="http://www.w3.org/2000/svg" xmlns:xlink="http://www.w3.org/1999/xlink" x="0px" y="0px"
	 viewBox="0 0 600 510.6" style="enable-background:new 0 0 600 510.6;" xml:space="preserve">
<style type="text/css">
	.st0{fill:#003366;}
	.st1{fill:#996600;}
</style>
<g>
	<g>
		<path class="st0" d="M140.7,292.6v24.1h-5.2v-2.6h-27.3v2.6H103v-23.8c-0.9,0.4-2.5,1-4.8,1.8l-2.7-5c6.7-1.7,12.6-4.6,17.6-8.7
			H96v-4.6h23V272c-8.4,0.2-14.3,0.3-17.9,0.3l-1.9-5.1c2.1,0.1,4.8,0.1,7.9,0.1c14.8,0,26-0.8,33.5-2.6l2.4,4.6
			c-5.1,1-11.3,1.9-18.7,2.5v4.7h23.5v4.7h-17.9c4.2,4,10.3,6.9,18.3,8.5l-2.5,5.1c-0.7-0.3-1.6-0.6-2.5-0.9
			C142.2,293.5,141.4,293.1,140.7,292.6z M106.2,291.4H119v-10.2C115.7,285.8,111.5,289.2,106.2,291.4z M135.5,296.1h-27.3v4.2h27.3
			V296.1z M108.2,309.6h27.3v-4.9h-27.3V309.6z M124.1,281.2v10.2h13.8C132.2,289.2,127.7,285.8,124.1,281.2z"/>
		<path class="st0" d="M178.6,299.6c-1.6,6-3.8,11.5-7,16.6l-4.4-4.6c3.3-4.7,5.5-9.6,6.6-14.8L178.6,299.6z M175,290.6
			c-3-2.6-5.6-4.6-7.8-6l3.3-4.1c2.6,1.4,5.4,3.2,8.2,5.4L175,290.6z M180.5,270.7h7.3v-5.8h5.1v5.8H203v-5.8h5v5.8h9.2v4.3H208v5.7
			h10v4.7h-10.7c1.4,3,5.2,6,11.2,8.9l-2.4,5c-3.4-2.1-6.2-4-8.5-6.1v11.4h-17.9v3.5c0,1.3,0.6,2,2,2h16.4c1.6,0,2.5-0.6,2.8-1.8
			s0.6-3.2,0.8-6.2l5.4,2c-0.6,5.2-1.3,8.3-2.4,9.3c-0.9,1-2.9,1.4-5.7,1.4h-18c-2.4,0-4-0.4-5-1.3c-0.9-0.9-1.3-2.7-1.3-5.2v-12.4
			c-0.9,0.8-2.6,2-5.1,3.5l-3.2-4.7c6.1-2.8,10-5.9,11.7-9.4h-8.9v-4.7h8.5V275h-7.3v-3l-3.4,4.2c-3-2.8-5.8-5-8.3-6.5l3.6-4.1
			c3.1,2,5.8,3.8,8,5.5v-0.4L180.5,270.7L180.5,270.7z M189.9,294.9v5.5h12.8v-5.5H189.9z M194.2,285.5c-0.8,1.9-1.9,3.5-3.3,5H205
			c-1.2-1.3-2.4-3-3.4-5H194.2z M192.9,275.4v5.5H203v-5.5H192.9z"/>
		<path class="st0" d="M248.5,272.5c-2,0.4-4.9,0.7-8.6,0.9l-1.1-4.7c8.3-0.4,15.4-1.8,21.4-4l1.9,4.6c-2.7,0.9-5.5,1.7-8.4,2.3v7.9
			h8.5v4.8h-8.5v0.5c4.1,3.8,7.2,6.9,9.4,9.2l-3.1,4.8c-1.1-1.6-2.2-3-3.3-4.2c-0.9-1.1-2-2.4-2.9-3.7v25.5l-5.1,0.2v-22.9
			c-1.4,3.5-3.9,7.7-7.6,12.4l-3.1-5c4.7-5.3,8.2-11,10.4-17.2h-10.1v-4.8h10.3v-6.8h-0.1V272.5z M261.4,304.3v-5.2l18.6-2.7v-32
			h5.2v31.3l5-0.8v5.1l-5,0.8v15.9H280v-15.3L261.4,304.3z M273.4,293.1c-3.8-3.2-7.1-5.7-10.1-7.3l3.3-3.7
			c2.8,1.4,6.2,3.7,10.2,6.8L273.4,293.1z M274.4,279.5c-4.1-3.3-7.4-5.7-10-7.2l3.3-3.6c2.4,1.3,5.8,3.6,10.1,6.7L274.4,279.5z"/>
		<path class="st0" d="M329.8,280.8h-6.5v9.8c3-0.9,5.2-1.8,6.5-2.5v5.5c-1.1,0.6-3.3,1.4-6.5,2.6v13.7c0,2.6-0.4,4.3-1.1,5.2
			c-0.8,0.9-2.6,1.3-5.3,1.3h-4.4l-1.2-5.6l4.9,0.2c1.2,0,1.9-0.6,1.9-1.9v-11.4c-3.1,0.8-5.6,1.4-7.4,1.9l-1.3-6
			c3.2-0.4,6.1-0.9,8.8-1.7v-11.2H310v-5.1h8.2v-11.2h5.5v11.4h6.5v-3.5h11.9v-7.9h5.5v7.9h13.1v5.1h-13.1v7.4h11.2v4.7
			c-0.5,2-1.7,4.7-3.6,7.9c-2,3.2-3.9,5.8-6.1,7.7c3.7,3,7.9,5.2,12.5,6.5l-2.8,5.2c-4.9-1.6-9.5-4.3-13.8-8.3
			c-5.9,4.4-11.5,7.2-16.8,8.4l-3.1-5.1c5.4-1.1,10.7-3.6,16-7.1c-2.9-2.9-5.7-6.8-8.4-11.8l4.7-1.9c2.6,4.6,5.1,8.1,7.7,10.7
			c3.8-3,6.4-6.8,8.1-11.5h-22v-5.1h11v-7.4h-11.9L329.8,280.8z"/>
		<path class="st0" d="M413.4,284.3c0.8,4.6,2.9,9.3,6,14.2c3.1,5,7.4,9.3,13,12.9l-4.2,5.1c-10-6.5-16.9-17.3-20.6-32.2h-0.9
			c-2.5,13.3-9.9,24.1-22.3,32.3l-4.2-5.3c5.3-3,9.7-6.9,13.6-11.8c3.7-4.9,6-9.9,6.9-15.2h-19.1v-5.9h20.1c0.5-3.4,0.7-8.1,0.7-14
			h5.8c0,6.4-0.1,11.1-0.4,14h23.6v5.9H413.4z"/>
		<path class="st0" d="M492.6,294.6v4c-3.2,1.8-7.2,3.3-12,4.9h23.1v4.4h-23.1v2.3c0,3.9-1.7,5.9-5.1,5.9h-8.2l-1.2-4.4l7.7,0.2
			c1.1,0,1.7-0.5,1.7-1.7v-2.3h-24.1v-4.4h24.1v-2.4c2.6-0.4,5.8-1.2,9.7-2.4h-23.4v-4.1H492.6L492.6,294.6z M497.5,292.2h-40.1v8.2
			h-5v-12.5h2.8l-0.6-21.3c4.9-0.1,8.9-0.7,12.2-1.7l2.5,4.1c-2.1,0.7-5.4,1.2-9.9,1.4l0.2,2.8h8.7v3.8h-8.5l0.1,3.2h8.5v3.8H460
			l0.1,3.7h34.8l0.1-3.7h-7.8v-3.8h8l0.1-3.2h-8.1v-3.8h8.2l0.1-3.1h-8.8v-4.3h13.8l-0.6,21.9h3v12.5h-5v-8.1h-0.4V292.2z
			 M478.2,272.3c-1.9,1.1-4,2.3-6.5,3.4l-2.8-3.7c3.1-0.8,5.2-1.7,6.1-2.3c-0.9-0.7-2.2-1.7-3.8-2.6l3-2.6c1.4,0.9,2.9,2,4.3,3.1
			c1.6-1,2.7-2.1,3.4-3l2.8,2.5c-0.8,1.1-1.9,2.1-3.3,3c0.7,0.6,1.8,1.7,2.9,2.9l-3.4,2.5C479.6,273.3,478.7,272.3,478.2,272.3z
			 M478.6,283.6c-1.7,1.1-3.8,2.3-6.5,3.1l-2.4-3.7c2.6-0.5,4.4-1.2,5.8-2c-0.7-0.5-2-1.4-3.7-2.7l2.9-2.5c0.7,0.5,1.3,0.9,2,1.2
			c0.7,0.5,1.4,1,2.4,1.8c1.1-0.7,2.4-1.9,3.8-3.4l2.9,2.5c-1.3,1.3-2.6,2.5-3.7,3.3c1,0.9,2.2,1.9,3.2,2.9l-3.5,2.7
			C479.8,284.8,478.9,283.6,478.6,283.6z"/>
	</g>
	<g>
		<path class="st0" d="M86.8,379.2h-5.1V343H72v-4.6h24.5v4.7h-9.7V379.2z"/>
		<path class="st0" d="M125.1,354.8v-16.4h5.1v40.9h-5.1v-19.6h-19.4v19.6h-5.1v-40.9h5.1v16.4H125.1z"/>
		<path class="st0" d="M138.1,338.4H160v4.7h-16.9v11.3h16.3v4.7h-16.3v15.4H160v4.7h-21.9V338.4z"/>
		<path class="st0" d="M207.1,354.8v-16.4h5.1v40.9h-5.1v-19.6h-19.4v19.6h-5.1v-40.9h5.1v16.4H207.1z"/>
		<path class="st0" d="M260,358.7c0,12.1-9.6,21.3-21.4,21.3c-11.8,0-21.4-9.1-21.4-21.3c0-11.7,9.7-21.3,21.4-21.3
			C250.3,337.5,260,347.1,260,358.7z M254.9,358.7c0-9-6.7-16.6-16.3-16.6s-16.3,7.6-16.3,16.6c0,9.3,7.4,16.6,16.3,16.6
			S254.9,368.1,254.9,358.7z"/>
		<path class="st0" d="M265,336.4l30.6,32.1v-30.1h5.1v42.5l-30.6-32.1v30.4H265V336.4z"/>
		<path class="st0" d="M345.7,358.6v1.7c0,11.2-7.9,19.9-19.3,19.9s-20.6-9.8-20.6-21.2c0-11.8,9.4-21.4,21.2-21.4
			c6.3,0,12.6,2.9,16.7,7.9l-3.6,3.4c-2.9-4-7.9-6.6-12.8-6.6c-9.1,0-16.3,7.4-16.3,16.6c0,8.6,7,16.7,15.8,16.7
			c6.3,0,13.1-5.5,13.3-12.1h-10.6v-4.7h16.2V358.6z"/>
		<path class="st0" d="M389.9,338.4h6.6l-18.3,18.4l18.7,22.4H390l-15.4-19l-2.1,2v17.1h-5.1v-40.9h5.1v17.7L389.9,338.4z"/>
		<path class="st0" d="M440.4,358.7c0,12.1-9.6,21.3-21.4,21.3s-21.4-9.1-21.4-21.3c0-11.7,9.7-21.3,21.4-21.3
			C430.7,337.5,440.4,347.1,440.4,358.7z M435.3,358.7c0-9-6.7-16.6-16.3-16.6s-16.3,7.6-16.3,16.6c0,9.3,7.4,16.6,16.3,16.6
			S435.3,368.1,435.3,358.7z"/>
		<path class="st0" d="M445.3,336.4l30.6,32.1v-30.1h5.1v42.5l-30.6-32.1v30.4h-5.1V336.4z"/>
		<path class="st0" d="M526,358.6v1.7c0,11.2-7.9,19.9-19.3,19.9c-11.4,0-20.6-9.8-20.6-21.2c0-11.8,9.4-21.4,21.2-21.4
			c6.3,0,12.6,2.9,16.7,7.9l-3.6,3.4c-2.9-4-7.9-6.6-12.8-6.6c-9.1,0-16.3,7.4-16.3,16.6c0,8.6,7,16.7,15.8,16.7
			c6.3,0,13.1-5.5,13.3-12.1h-10.6v-4.7H526V358.6z"/>
		<path class="st0" d="M5.1,403.3v24.1c0,6.6,2,12.8,9.8,12.8s9.8-6.2,9.8-12.8v-24.1h5.1v25.9c0,9-5.6,15.8-14.9,15.8
			C5.5,445,0,438.2,0,429.2v-25.9H5.1z"/>
		<path class="st0" d="M36.9,401.4l30.7,32v-30.1h5.1v42.5l-30.7-32v30.4h-5.1V401.4z"/>
		<path class="st0" d="M85.3,444.2h-5.1v-40.9h5.1V444.2z"/>
		<path class="st0" d="M107.1,433.5l12.1-30.2h5.6l-17.7,43l-17.8-43h5.6L107.1,433.5z"/>
		<path class="st0" d="M128.8,403.3h21.9v4.7h-16.9v11.4h16.3v4.7h-16.3v15.5h16.9v4.7h-21.9V403.3z"/>
		<path class="st0" d="M182.9,444.2h-6.2l-12-17.3h-2.1v17.3h-5.1v-40.9h6.2c3.6,0,7.6,0.1,10.8,1.9c3.4,2,5.4,5.9,5.4,9.7
			c0,5.9-3.9,10.8-9.8,11.4L182.9,444.2z M162.6,422.7h1.7c5.2,0,10.9-0.9,10.9-7.4c0-6.4-6.1-7.3-11.1-7.3h-1.3v14.8h-0.2V422.7z"
			/>
		<path class="st0" d="M205.6,411.1c-1.6-2.6-3.5-3.8-6.5-3.8c-3.2,0-6.8,2.2-6.8,5.8c0,3.2,3.1,4.9,5.7,5.9l2.9,1.1
			c5.8,2.3,10.1,5.5,10.1,12.3c0,7.4-5.7,12.7-13,12.7c-6.6,0-11.8-4.9-12.6-11.4l5.2-1c-0.1,4.4,3.5,7.8,7.9,7.8
			c4.3,0,7.6-3.7,7.6-8s-3.5-6.3-7-7.8l-2.8-1.1c-4.7-2-8.9-4.7-8.9-10.3c0-6.6,5.9-10.6,12-10.6c4.6,0,8.3,2.2,10.6,6.2
			L205.6,411.1z"/>
		<path class="st0" d="M222,444.2h-5.1v-40.9h5.1V444.2z"/>
		<path class="st0" d="M241.1,444.2H236V408h-9.7v-4.7h24.5v4.7h-9.7V444.2L241.1,444.2z"/>
		<path class="st0" d="M251.2,403.3h5.9l10,17.4l10-17.4h5.9l-13.3,23.1v17.8h-5.1v-17.8L251.2,403.3z"/>
		<path class="st0" d="M343,423.7c0,12.1-9.6,21.3-21.4,21.3s-21.4-9.1-21.4-21.3c0-11.7,9.7-21.3,21.4-21.3
			C333.3,402.5,343,412,343,423.7z M338,423.7c0-9-6.7-16.6-16.3-16.6c-9.6,0-16.3,7.6-16.3,16.6c0,9.3,7.4,16.6,16.3,16.6
			C330.4,440.3,338,433,338,423.7z"/>
		<path class="st0" d="M353.5,408v11.5h14.2v4.7h-14.2v20.1h-5.1v-40.9h19.8v4.7h-14.7V408z"/>
		<path class="st0" d="M409,411.1c-1.6-2.6-3.5-3.8-6.5-3.8c-3.2,0-6.8,2.2-6.8,5.8c0,3.2,3.1,4.9,5.7,5.9l2.9,1.1
			c5.8,2.3,10.1,5.5,10.1,12.3c0,7.4-5.7,12.7-13,12.7c-6.6,0-11.8-4.9-12.6-11.4l5.2-1c-0.1,4.4,3.5,7.8,7.9,7.8s7.6-3.7,7.6-8
			s-3.5-6.3-7-7.8l-2.8-1.1c-4.7-2-8.9-4.7-8.9-10.3c0-6.6,5.9-10.6,12-10.6c4.6,0,8.3,2.2,10.6,6.2L409,411.1z"/>
		<path class="st0" d="M450.2,411.1c-2.9-2.6-6.9-4-10.8-4c-9.1,0-16.1,7.7-16.1,16.7c0,8.9,6.9,16.6,16,16.6c4,0,7.9-1.6,10.9-4.2
			v6c-3.1,1.9-7.1,2.9-10.8,2.9c-11.7,0-21.3-9.3-21.3-21.1c0-12.1,9.7-21.5,21.7-21.5c3.6,0,7.2,0.8,10.2,2.8v6h0.2V411.1z"/>
		<path class="st0" d="M461.8,444.2h-5.1v-40.9h5.1V444.2z"/>
		<path class="st0" d="M470,403.3h21.9v4.7H475v11.4h16.3v4.7H475v15.5h16.9v4.7H470V403.3z"/>
		<path class="st0" d="M498.2,401.4l30.6,32.1v-30.1h5.1v42.5l-30.6-32.1v30.4h-5.1L498.2,401.4L498.2,401.4z"/>
		<path class="st0" d="M571.4,411.1c-2.9-2.6-6.9-4-10.8-4c-9.1,0-16.1,7.7-16.1,16.7c0,8.9,6.9,16.6,16,16.6c4,0,7.9-1.6,10.9-4.2
			v6c-3.1,1.9-7.1,2.9-10.8,2.9c-11.7,0-21.3-9.3-21.3-21.1c0-12.1,9.7-21.5,21.7-21.5c3.6,0,7.2,0.8,10.2,2.8v6h0.2V411.1z"/>
		<path class="st0" d="M578.1,403.3H600v4.7h-16.9v11.4h16.3v4.7h-16.3v15.5H600v4.7h-21.9V403.3z"/>
		<path class="st0" d="M63.9,498.8L59.2,509h-5.5l19.4-42.5L92.5,509H87l-4.7-10.2H63.9z M73.2,477.7L66,494.3h14.5L73.2,477.7z"/>
		<path class="st0" d="M96.2,466.3l30.6,32.1v-30.1h5.1v42.5l-30.6-32.1v30.4h-5.1V466.3z"/>
		<path class="st0" d="M139.3,468.3h8.5c12.5,0,22.9,6.6,22.9,20.2c0,13.9-10.1,20.6-23.1,20.6h-8.3L139.3,468.3L139.3,468.3z
			 M144.4,504.4h1.8c10.4,0,19.3-3.9,19.3-15.7c0-11.9-9-15.7-19.3-15.7h-1.8V504.4z"/>
		<path class="st0" d="M203.5,509.1h-5.1v-36.2h-9.7v-4.7h24.4v4.7h-9.7v36.2H203.5z"/>
		<path class="st0" d="M217.7,468.3h21.9v4.7h-16.9v11.4H239v4.7h-16.3v15.3h16.9v4.7h-21.9V468.3z"/>
		<path class="st0" d="M276.2,476.1c-2.9-2.6-6.9-4-10.8-4c-9.1,0-16.1,7.7-16.1,16.7c0,8.9,6.9,16.6,16,16.6c4,0,7.9-1.6,10.9-4.2
			v6c-3.1,1.9-7.1,2.9-10.8,2.9c-11.7,0-21.3-9.3-21.3-21.1c0-12.1,9.7-21.5,21.7-21.5c3.6,0,7.2,0.8,10.2,2.8v6h0.2V476.1z"/>
		<path class="st0" d="M306.8,484.7v-16.4h5.1v40.9h-5.1v-19.6h-19.4v19.6h-5.1v-40.9h5.1v16.4H306.8z"/>
		<path class="st0" d="M319.3,466.3l30.7,32.1v-30.1h5.1v42.5l-30.6-32.1v30.4h-5.1v-42.8H319.3z"/>
		<path class="st0" d="M402.8,488.7c0,12.1-9.6,21.3-21.4,21.3s-21.4-9.1-21.4-21.3c0-11.7,9.7-21.3,21.4-21.3
			C393.1,467.4,402.8,477,402.8,488.7z M397.7,488.7c0-9-6.7-16.6-16.3-16.6c-9.6,0-16.3,7.6-16.3,16.6c0,9.3,7.4,16.6,16.3,16.6
			C390.2,505.2,397.7,498,397.7,488.7z"/>
		<path class="st0" d="M413.4,504.4h12.4v4.7h-17.5v-40.9h5.1V504.4z"/>
		<path class="st0" d="M469.6,488.7c0,12.1-9.6,21.3-21.4,21.3s-21.4-9.1-21.4-21.3c0-11.7,9.7-21.3,21.4-21.3
			S469.6,477,469.6,488.7z M464.5,488.7c0-9-6.7-16.6-16.3-16.6s-16.3,7.6-16.3,16.6c0,9.3,7.4,16.6,16.3,16.6
			C457,505.2,464.5,498,464.5,488.7z"/>
		<path class="st0" d="M512.2,488.6v1.7c0,11.2-7.9,19.9-19.3,19.9s-20.6-9.8-20.6-21.2c0-11.8,9.4-21.4,21.2-21.4
			c6.3,0,12.6,2.9,16.7,7.9l-3.6,3.4c-2.9-4-7.9-6.6-12.8-6.6c-9.1,0-16.3,7.4-16.3,16.6c0,8.6,7,16.7,15.8,16.7
			c6.3,0,13.1-5.5,13.3-12.1H496v-4.7h16.2V488.6z"/>
		<path class="st0" d="M513.5,468.3h5.9l10,17.4l10-17.4h5.9L532,491.4v17.8h-5v-17.8L513.5,468.3z"/>
	</g>
	<g>
		<g>
			<path class="st1" d="M342.5,236l-27.6-45.9c0,0-0.8-1-0.8-2.8v-1v-2.4V102h-10.4v85.3v2.6c0.8,0.8,18.2,30.5,18.2,30.5h-43
				c0,0,17.4-29.6,18.2-30.5v-2.6V102h-10.4v81.9v2.4v1c0,1.8-0.8,2.8-0.8,2.8L258.3,236L342.5,236L342.5,236z"/>
		</g>
		<g>
			<path class="st1" d="M333.9,42.2c0,0,5.2-21.5-13.3-35.6c0,0-7.4-6.6-21.5-6.6c-12.6,0-20,6.6-20,6.6
				c-17.1,11.9-12.6,35.6-12.6,35.6H333.9z"/>
			<path class="st1" d="M268.6,48.1H332c0.5-1.2,0.9-2.5,1.2-3.7h-66C267.7,45.7,268.1,47,268.6,48.1z"/>
			<path class="st1" d="M331,50.4h-61.4c0.6,1.2,1.3,2.5,2.1,3.7h57.2C329.7,52.8,330.4,51.6,331,50.4z"/>
			<path class="st1" d="M275.9,59.3h48.8c0.9-0.9,1.8-2,2.6-3h-54C274.1,57.3,275,58.3,275.9,59.3z"/>
			<path class="st1" d="M281.2,63.7h38.3c1-0.7,2-1.4,2.9-2.2h-44.1C279.2,62.3,280.1,63,281.2,63.7z"/>
			<path class="st1" d="M286.4,66.6c4.2,1.9,8.9,3,13.9,3s9.6-1,13.9-3H286.4z"/>
		</g>
		<path class="st0" d="M366.1,71.3h-51.9c0,0-4.8,0-8.7,2.6c-3,2.1-5.1,6.7-5.2,6.9l0,0c-0.1-0.2-2.2-5-5.2-6.9
			c-3.8-2.6-8.7-2.6-8.7-2.6h-51.9l-10.3,16.6h47.5c0,0,1.4,0,2.3,0.1c1.4,0.2,3.8,0.9,6.4,2.8c3.5,2.6,4.6,3.8,5.4,4.8
			c0.4,0.4,1.6,2,1.6,2H299h1.3l0,0h4h9c0,0,1.1-1.4,1.6-2c0.8-0.8,1.9-2.2,5.4-4.8c2.6-1.9,5.1-2.6,6.4-2.8
			c0.8-0.1,2.3-0.1,2.3-0.1h47.5L366.1,71.3z"/>
		<g>
			<g>
				<path class="st0" d="M229.4,92.9v77.9c0,0,0,0.8,0,1c0,0.8,0.1,1.7,0.1,2.4c0.8,8.4,3.4,14.5,8.3,22.7
					c7.7,12.7,21.4,21.6,21.4,21.6l6.5-10.3c0,0-8.9-4.8-15.9-15.5c-1.4-2.2-2.8-4.1-3.8-6.2c-0.9-1.9-1.7-3.4-2.2-5.1
					c-0.4-1.1-0.7-2.3-0.9-3.3c-0.3-1.4-0.5-2.6-0.6-3.9c0-0.5-0.1-2.5-0.1-2.5v-0.4V92.9H229.4z"/>
				<path class="st0" d="M249.2,92.9v78.6c0,0,0,0.3,0,0.6c0,0.4,0.1,0.9,0.1,1.4c0,0.3,0.1,0.6,0.1,0.8c0.2,1.2,0.5,2.3,1,3.9
					c0.9,2.7,2.5,5.8,4.8,9.5c5.8,9.4,14.3,13.8,14.3,13.8l6.5-10.1c0,0-2.2-1.1-4.8-3.7c-1.8-1.7-3.8-3.8-5.6-6.5
					c-1.8-2.7-2.8-5.4-3.4-7.4c-0.5-1.7-0.6-3.1-0.6-3.9c0-0.7,0-1.1,0-1.1V92.9H249.2z"/>
			</g>
			<g>
				<path class="st0" d="M371.3,92.9v77.9c0,0,0,0.8,0,1c0,0.8-0.1,1.7-0.1,2.4c-0.8,8.4-3.4,14.5-8.3,22.7
					c-7.7,12.7-21.4,21.6-21.4,21.6l-6.5-10.3c0,0,8.9-4.8,15.9-15.5c1.4-2.2,2.8-4.1,3.8-6.2c0.9-1.9,1.7-3.4,2.2-5.1
					c0.4-1.1,0.7-2.3,0.9-3.3c0.3-1.4,0.5-2.6,0.6-3.9c0-0.5,0.1-2.5,0.1-2.5v-0.4V92.9H371.3z"/>
				<path class="st0" d="M351.4,92.9v78.6c0,0,0,0.3,0,0.6c0,0.4-0.1,0.9-0.1,1.4c0,0.3-0.1,0.6-0.1,0.8c-0.2,1.2-0.5,2.3-1,3.9
					c-0.9,2.7-2.5,5.8-4.8,9.5c-5.8,9.4-14.3,13.8-14.3,13.8l-6.5-10.1c0,0,2.2-1.1,4.8-3.7c1.8-1.7,3.8-3.8,5.6-6.5
					c1.8-2.7,2.8-5.4,3.4-7.4c0.5-1.7,0.6-3.1,0.6-3.9c0-0.7,0-1.1,0-1.1V92.9H351.4z"/>
			</g>
		</g>
	</g>
</g>
</svg>
